<?xml version="1.0" standalone="no"?>
<!DOCTYPE svg PUBLIC "-//W3C//DTD SVG 20010904//EN"
 "http://www.w3.org/TR/2001/REC-SVG-20010904/DTD/svg10.dtd">
<svg version="1.0" xmlns="http://www.w3.org/2000/svg"
 width="453.000000pt" height="541.000000pt" viewBox="0 0 453.000000 541.000000"
 preserveAspectRatio="xMidYMid meet">
<metadata>
Created by potrace 1.16, written by Peter Selinger 2001-2019
</metadata>
<g transform="translate(0.000000,541.000000) scale(0.100000,-0.100000)"
fill="#000000" stroke="none">
<path d="M2105 5386 c-69 -22 -124 -55 -176 -105 l-50 -49 -47 16 c-34 11
-105 16 -263 20 -240 4 -334 -5 -417 -43 -64 -29 -161 -120 -193 -180 -22 -40
-25 -43 -54 -37 -16 4 -149 7 -295 7 -250 -1 -268 -2 -320 -23 -110 -44 -207
-141 -253 -252 -22 -55 -22 -56 -22 -670 0 -537 2 -622 16 -671 15 -52 15 -63
1 -130 -13 -61 -16 -150 -17 -494 0 -398 1 -426 23 -532 62 -307 198 -566 414
-789 l108 -111 0 -672 0 -671 1415 0 1415 0 2 520 3 521 89 30 c498 167 888
593 1001 1094 43 190 46 281 43 1108 l-3 779 -35 31 c-32 30 -56 37 -302 92
l-268 60 0 330 c0 358 -4 389 -56 485 -35 65 -117 141 -188 174 -83 39 -173
49 -420 44 -172 -4 -231 -9 -264 -21 l-43 -17 -49 49 c-27 27 -80 64 -117 83
l-67 33 -286 2 c-211 2 -295 -1 -325 -11z m572 -253 c45 -25 74 -59 91 -112 8
-22 12 -120 12 -277 0 -205 -2 -244 -14 -244 -8 0 -73 14 -144 30 -147 34
-190 37 -232 15 -37 -19 -53 -50 -76 -150 -15 -64 -19 -118 -18 -270 0 -177 2
-196 27 -278 63 -206 173 -365 340 -489 l67 -50 -20 -27 c-54 -77 -139 -131
-233 -151 -154 -31 -319 56 -394 208 l-28 57 -3 803 c-2 772 -2 804 17 846 22
51 71 92 127 105 21 6 129 9 239 8 185 -2 203 -4 242 -24z m-904 -132 l27 -14
0 -782 c0 -486 4 -802 10 -836 l10 -53 -46 -47 c-117 -119 -305 -142 -445 -54
-56 36 -126 121 -148 181 -20 53 -21 73 -21 771 l0 715 22 40 c23 39 66 73
116 88 46 15 443 7 475 -9z m1759 9 c48 -14 94 -53 119 -101 18 -36 19 -57 17
-327 l-3 -289 -315 72 -315 71 0 279 0 279 40 12 c50 16 405 18 457 4z m-2663
-256 l40 -16 3 -696 3 -697 -40 -43 c-168 -180 -473 -120 -583 116 l-27 57 -3
560 c-2 383 0 572 8 597 14 50 56 97 105 119 35 16 68 19 247 19 167 0 215 -3
247 -16z m2559 -665 l852 -193 0 -719 c0 -779 -3 -830 -56 -1015 -14 -48 -49
-137 -79 -198 -172 -353 -483 -598 -885 -697 -80 -19 -120 -21 -622 -24 l-538
-4 0 101 c0 283 67 572 185 798 207 397 565 660 1073 788 74 18 141 39 149 45
35 30 43 66 43 204 0 211 -8 220 -230 228 -175 6 -265 28 -400 94 -78 39 -110
62 -181 133 -70 70 -94 101 -127 170 -52 110 -72 202 -72 337 0 117 6 156 24
150 6 -2 395 -91 864 -198z m-389 -905 c34 -8 89 -18 124 -22 l62 -7 -111 -37
c-620 -207 -1040 -639 -1194 -1230 -42 -162 -60 -288 -67 -482 l-6 -168 -241
5 c-194 4 -258 9 -326 25 -245 58 -441 165 -621 339 -196 190 -316 408 -375
683 -13 58 -18 154 -21 423 l-5 347 74 -39 c40 -22 102 -47 138 -56 82 -21
235 -21 314 0 72 19 182 75 233 120 l38 33 50 -47 c181 -171 465 -210 693 -96
37 19 86 50 108 69 l42 35 46 -42 c26 -23 75 -59 109 -80 179 -109 428 -111
615 -5 70 40 162 126 207 193 20 30 40 55 45 55 4 0 36 -7 69 -16z m-1978
-2115 c175 -58 260 -70 536 -76 l252 -5 3 -284 3 -284 31 -31 c59 -58 151 -47
194 24 19 30 20 52 20 304 l0 273 520 2 520 3 0 -377 0 -378 -1165 0 -1165 0
0 468 0 468 79 -38 c44 -21 121 -52 172 -69z"/>
</g>
</svg>
